<svg id="Layer_1" data-name="Layer 1" xmlns="http://www.w3.org/2000/svg" viewBox="0 0 300 300"><defs><style>.cls-1{fill:#9d9d9c;}</style></defs><title>icons</title><path id="jquery" class="cls-1" d="M38,47.78c-2.51,7.81-5.67,15.71-7.56,23.91C23.44,101.8,27.54,131,40.7,158.54,63,205.17,99.52,236,148.91,250.23c36.44,10.53,72.87,9,107.69-7.91,13.88-6.76,25.57-16.36,35.68-28.19-.16.54-.27,1.1-.47,1.62s-.56,1.27-.87,1.88C272,254.08,243,278,203.13,288.35a156.75,156.75,0,0,1-60,3.26C75.6,282.73,18.36,230.38,3.48,163.84-3.08,134.51-.85,106,14.39,79.53c4.89-8.49,11.5-16,17.38-23.92C33.82,52.84,36,50.18,38,47.78ZM103.63,36.7C88.31,57.82,84.3,81.36,89.39,106.52c5.63,27.78,20.72,49.82,42.7,67.34,13.7,10.92,28.94,19.22,46,22.91a123.49,123.49,0,0,0,50.94.29c32.31-6.58,55.58-24.75,69.53-54.71.53-1.14.94-2.32,1.43-3.52-4.43,4.52-8.4,9.25-13,13.17-21.89,18.5-47.6,24.58-75.36,20.54-42-6.13-73.48-28.4-93.7-65.82C107.51,87.5,103.64,66.77,107.55,45.1,109,37,112,29.24,114,22.08,110.94,26.41,107.34,31.6,103.63,36.7ZM177.18,7.13c-1.52,2.07-3.05,4.13-4.55,6.21-10.57,14.6-13.31,30.71-9.14,48.09,6.93,28.95,37.74,57.31,75.19,55.85,22.28-.87,39-10.46,50.41-29.57a17.69,17.69,0,0,0,.83-1.83c-7.73,8.15-17,13.36-28,14.5-29.41,3.06-54.19-6.21-72.9-29.47-11.41-14.18-17.48-30.44-15.19-49,.63-5.11,2.35-10.09,3.54-15C177.47,6.88,177.29,7,177.18,7.13Z"/></svg>