<svg id="Layer_1" data-name="Layer 1" xmlns="http://www.w3.org/2000/svg" viewBox="0 0 300 300"><defs><style>.cls-1{fill:#9d9d9c;}</style></defs><title>icons</title><path id="rails" class="cls-1" d="M300,58.86l-6.25,9.46a3.89,3.89,0,0,1-1.24-.42c-18-15.8-38.66-18.92-60.58-11.07-40,14.33-64.31,43.31-74.54,84.15-5.53,22.11-4.94,44.63-2.28,67.08a347.76,347.76,0,0,0,22.83,88.15,14.82,14.82,0,0,1,.47,2h-146c-.19-2.14-.52-4.37-.58-6.61-1-35.82,5.57-70.52,16.57-104.34,12.52-38.51,29.76-74.95,53.12-108.12,17.35-24.64,40.11-43,69-53,30-10.42,59.53-9.22,88.36,4.6A160.75,160.75,0,0,1,300,58.86ZM3.19,224.23C2.09,233.79,1.06,242.77,0,252l26.91,3.18c1.69-9.84,3.26-18.95,4.94-28.73Zm52.86-82.7-25.29-9.92-8.23,23.22,25.83,8.32C51,155.79,53.46,148.79,56.05,141.53ZM172.93,269.41c.23.77,1.18,1.84,1.86,1.89,9,.63,18,1.1,27.69,1.66-3.46-7.2-6.52-13.72-9.78-20.15a3.67,3.67,0,0,0-2.79-1.38c-7.09-.12-14.17-.06-22-.06C169.65,257.75,171.22,263.6,172.93,269.41ZM84.16,88.85C89.24,82.79,94,77.07,99,71.1L79.76,58.37,64.38,75.55Zm76.33,106.51c-1,5.18.67,7.8,5.77,9.41,5.66,1.78,11,4.55,16.94,7.09-.31-5.89-.47-10.93-.91-16a4.34,4.34,0,0,0-1.83-3c-6-3.38-12.17-6.56-19.22-10.3C161,187.4,161.21,191.46,160.49,195.36Zm-24-159.18L154.6,25.6c-4.16-4.72-7.81-9-11.69-13.1a3.85,3.85,0,0,0-3.52-.66c-5.33,2.53-10.53,5.35-16.11,8.26Zm47.84,110.15a3.57,3.57,0,0,0-.77-3c-4.7-3.79-9.55-7.39-14.6-11.24-2.52,5.07-4.8,9.69-7.14,14.4l18.7,16.06C181.92,156.75,183.22,151.56,184.33,146.33Zm6.22-130.77c.2.87,1.3,2.17,2,2.19,6.87.16,13.74.09,21,.09-.71-4.94-1-8.69-1.89-12.32a4.24,4.24,0,0,0-3-2.59c-6.74-.55-13.51-.75-20.91-1.11C188.74,6.83,189.52,11.22,190.55,15.56Zm10.62,88.51a2.84,2.84,0,0,0,.07-2.38c-3.3-5.17-6.73-10.26-10.29-15.61L179.43,96.65l15.93,17.65C197.49,110.58,199.41,107.36,201.17,104.07ZM228.6,65.15l-15,3.75,7,13.06C233.33,72.23,231.78,75.75,228.6,65.15Zm35.78-46c-.26,2.8-.7,4.69-.51,6.51.16,1.48.65,3.55,1.71,4.21,4.25,2.65,8.78,4.86,13.47,7.38l3.28-5Zm11.14,52.44V64.94L261.07,61.8V70Z"/></svg>