<svg id="Layer_1" data-name="Layer 1" xmlns="http://www.w3.org/2000/svg" viewBox="0 0 300 300"><defs><style>.cls-1{fill:#9d9d9c;}</style></defs><title>icons</title><path id="html" class="cls-1" d="M17.53,0H282.47c-.66,7.79-1.26,15.32-1.93,22.84Q276,74.1,271.38,125.33q-5.29,59-10.64,118c-.71,7.84-1.46,15.68-1.93,23.53-.16,2.69-1.16,3.91-3.73,4.62-34.11,9.36-68.2,18.84-102.32,28.17a12.17,12.17,0,0,1-6.11-.11c-33.84-9.28-67.65-18.7-101.5-28-3-.81-3.83-2.24-4.09-5.19-2.89-33.61-6-67.21-8.94-100.81q-4-44.94-7.94-89.89Q21,40.2,17.79,4.71C17.65,3.22,17.62,1.71,17.53,0ZM77.17,171.19c1.54,17.45,3,34.39,4.64,51.3.1,1,1.9,2.21,3.12,2.56q31.21,8.79,62.49,17.33a8.33,8.33,0,0,0,4.1.27q32.08-8.76,64.1-17.79a4.37,4.37,0,0,0,2.57-3q4.42-47.64,8.57-95.31c.11-1.32,0-2.67,0-4.37H106.1c-1-11.35-2-22.35-3-33.86H230.17l2.88-32.89H66.81c3,33.54,6,66.64,9,100.16h114.4a5,5,0,0,1,.4,1.26c-1.14,13.3-2.23,26.6-3.57,39.88-.09,1-1.82,2.24-3,2.58q-15.79,4.48-31.69,8.62a10.24,10.24,0,0,1-4.92-.06c-10.33-2.68-20.6-5.56-30.92-8.24-2.46-.64-3.67-1.55-3.85-4.4-.49-8-1.42-15.89-2.2-24Z"/></svg>