<svg id="Layer_1" data-name="Layer 1" xmlns="http://www.w3.org/2000/svg" viewBox="0 0 300 300"><defs><style>.cls-1{fill:#9d9d9c;}</style></defs><title>icons</title><path id="ruby" class="cls-1" d="M296.57,99.06Q263.26,59.49,230,19.91a9.24,9.24,0,0,0-7.73-3.55q-72.84.09-145.67,0a8.87,8.87,0,0,0-7.43,3.4Q35.74,59.52,2.25,99.19c-3.08,3.66-3,6.19.16,9.9q59.33,70.4,118.64,140.8l28.42,33.75,44.15-52.44L296.62,109C299.68,105.34,299.72,102.8,296.57,99.06ZM227.78,36,280,97.91H216.72C220.36,77.49,224,57.26,227.78,36Zm-10.87-7.33c-3.57,20-7.1,39.79-10.8,60.56L161.54,28.66Zm-67.45,3.79,48.09,65.34H101.39Zm-12-3.86C122.42,49,107.88,68.77,92.84,89.2,89.16,68.57,85.61,48.73,82,28.59ZM71.15,36c3.78,21.09,7.4,41.28,11.08,61.79H19.06Zm60.5,207.9L19.06,110.2c1.7-.08,2.64-.17,3.58-.17,19.79,0,39.58,0,59.37,0,2,0,3.31.27,4.13,2.59Q108.81,177.31,131.67,242A2.52,2.52,0,0,1,131.65,243.89Zm17.41,11.28-51.13-145H201Q175.38,182.84,149.94,255Zm18.22-11.28-.59-.36q6-17.19,12.07-34.37c11.19-31.75,22.44-63.49,33.53-95.27,1-2.92,2.29-4,5.47-4,20.41.16,40.81.08,62.26.08Z"/></svg>