<svg id="Layer_1" data-name="Layer 1" xmlns="http://www.w3.org/2000/svg" viewBox="0 0 300 300"><defs><style>.cls-1{fill:#9d9d9c;}</style></defs><title>icons</title><path id="css" class="cls-1" d="M17.51,0h265c-.67,7.92-1.29,15.59-2,23.25q-4.1,46-8.22,92-4.46,49.58-8.93,99.13c-1.55,17.22-3.13,34.44-4.46,51.68-.26,3.31-1.25,4.79-4.59,5.7-33.73,9.18-67.4,18.6-101.12,27.83a12.93,12.93,0,0,1-6.51,0c-33.85-9.26-67.66-18.69-101.52-28-2.95-.81-3.85-2.2-4.11-5.18-2.88-33.61-5.95-67.21-8.93-100.82q-4-44.94-7.95-89.9Q21,40.24,17.78,4.75C17.64,3.25,17.6,1.74,17.51,0ZM233,55.26H66.84c1,11.16,1.93,22,2.92,33.27H195.91C195,100,194.17,111,193.3,122.34H107.81c.83,11.22,1.64,22,2.48,33.33h79.88a6.47,6.47,0,0,1,.29,1.32c-1.11,13.29-2.18,26.59-3.46,39.86-.09.89-1.65,2.06-2.73,2.36q-16,4.54-32.1,8.75a10.26,10.26,0,0,1-4.92-.13c-10.33-2.69-20.59-5.6-30.93-8.24-2.59-.66-3.54-1.78-3.72-4.5-.53-7.94-1.44-15.86-2.2-23.82H77.52a11.33,11.33,0,0,0-.15,1.84c1.42,16.39,2.8,32.77,4.42,49.14.11,1.07,2,2.49,3.28,2.85q31,8.76,62.09,17.21a9.84,9.84,0,0,0,4.9.2q31.69-8.61,63.3-17.56a5.12,5.12,0,0,0,2.86-3.66q4-40.9,7.67-81.84c2-22.53,3.9-45.07,5.82-67.6C232.17,66.42,232.55,61,233,55.26Z"/></svg>