<svg id="Layer_1" data-name="Layer 1" xmlns="http://www.w3.org/2000/svg" viewBox="0 0 300 300"><defs><style>.cls-1{fill:#9d9d9c;}</style></defs><title>icons</title><path id="js" class="cls-1" d="M17.52,0h265c-.3,4.05-.54,8-.89,12q-6.36,71.39-12.74,142.77-5,56.06-10,112.12c-.23,2.71-1.24,3.87-3.77,4.57-34.11,9.37-68.18,18.84-102.29,28.18a11.27,11.27,0,0,1-5.71,0c-34-9.32-67.91-18.77-101.88-28.09-2.69-.74-3.77-1.87-4-4.8-3.2-37.1-6.58-74.19-9.87-111.28q-4.84-54.6-9.62-109.19C20.38,31,19,15.76,17.52,0ZM161.17,175.12l54-9.64c-.44,8.24-1,15.89-1.18,23.56-.07,2.7-.86,3.82-3.62,4.52-14,3.56-28,7.41-41.93,11.16-7.43,2-7.43,2-7.43,9.87v24.28L168,237c20.65-5.37,41.29-10.79,62-16.08,3.51-.9,5.17-2.25,5.44-6.38,1.45-22.11,3.36-44.19,5.1-66.28.45-5.8.83-11.6,1.27-17.72L188,137.16V88.74h5c15.89,0,31.78-.1,47.66.08,3.52,0,5-.77,5.15-4.55.21-6.29,1-12.58,1.5-18.86.24-2.86.5-5.71.75-8.61H161.17ZM60,216.74l78.66,22v-182h-26v142.7L60,184.81Z"/></svg>