<svg id="Layer_1" data-name="Layer 1" xmlns="http://www.w3.org/2000/svg" viewBox="0 0 300 300"><defs><style>.cls-1{fill:#9d9d9c;}</style></defs><title>icons</title><path id="bootstrap" class="cls-1" d="M0,149.86q0-48.54,0-97.09C0,21.42,21.38,0,52.68,0Q150,0,247.35,0C278.63,0,300,21.43,300,52.8q0,97.82,0,195.65c0,25.21-15.84,45.22-39.81,50.37a59.15,59.15,0,0,1-12.11,1.12Q150,300,51.91,300C21.59,300,.07,278.32,0,247.93Q0,198.9,0,149.86ZM82,65.22V239.93c1.21.09,2,.2,2.83.2,27,0,54,.17,80.95-.09a96.17,96.17,0,0,0,19.78-2.37c17.31-3.84,31.25-12.06,38.26-29.66,8.53-21.42,1.77-55.12-27.82-61.94-.17,0-.27-.39-.47-.71l3.41-1.92c15-8.54,20.36-22,19.36-38.56-.88-14.81-7.57-25.93-20.9-32.82a60.43,60.43,0,0,0-28.12-6.88q-41,0-81.93,0Zm90,149.35c15.91-1.11,24.87-13.83,23.71-29.63-1.06-14.52-12.45-24.29-28.36-24.3q-24.64,0-49.28,0h-5.23v54.22C132.82,214.89,152.52,215.93,172,214.57Zm-56.18-76.16c15.92,0,31.83.14,47.74,0,15.08-.17,24.15-10.3,24-26.39-.12-13.33-9.22-21.57-24-21.64-12,0-24,0-36,0H112.83v47.78C114,138.23,114.93,138.41,115.86,138.41Z"/></svg>