<svg id="Layer_1" data-name="Layer 1" xmlns="http://www.w3.org/2000/svg" viewBox="0 0 300 300"><defs><style>.cls-1{fill:#9d9d9c;}</style></defs><title>icons</title><g id="psd"><path class="cls-1" d="M0,3.45v293.1H300V3.45ZM276.15,273.33H24.48V27.3H276.15Z"/><path class="cls-1" d="M78.86,87.34c8.09-1.48,19.32-2.58,34.59-2.58,16.56,0,28.7,3.49,36.61,10.12,7.36,6.07,12.14,15.82,12.14,27.41,0,11.78-3.67,21.53-10.67,28.15-9,9-23.18,13.25-39.19,13.25a64,64,0,0,1-11-.74v46.73H78.86Zm22.44,57.77a46.07,46.07,0,0,0,11,.92c16.93,0,27.24-8.28,27.24-22.82,0-13.8-9.57-21.16-25.21-21.16a62,62,0,0,0-13.07,1.11Z"/><path class="cls-1" d="M169.19,188.9c5.15,3.13,14.9,6.43,23,6.43,9.93,0,14.35-4,14.35-9.93,0-6.07-3.68-9.2-14.72-13.07-17.48-6.07-24.84-15.63-24.66-26.12,0-15.82,13.07-28.15,33.86-28.15,9.93,0,18.58,2.58,23.73,5.33l-4.41,16a40.24,40.24,0,0,0-19-5.15c-8.1,0-12.52,3.86-12.52,9.38,0,5.71,4.24,8.47,15.64,12.51,16.19,5.89,23.74,14.17,23.92,27.42,0,16.19-12.69,28.15-36.43,28.15-10.86,0-20.61-2.76-27.22-6.44Z"/></g></svg>