<svg id="Layer_1" data-name="Layer 1" xmlns="http://www.w3.org/2000/svg" viewBox="0 0 300 300"><defs><style>.cls-1{fill:#9d9d9c;}</style></defs><title>icons</title><g id="ai"><path class="cls-1" d="M0,3.45v293.1H300V3.45ZM276.15,273.33H24.48V27.3H276.15Z"/><path class="cls-1" d="M109.31,174.87,98.64,210H75.27L115,86H143.9l40.29,124H159.91l-11.23-35.14Zm35.51-17.11-9.75-30.54c-2.4-7.55-4.42-16-6.26-23.19h-.37c-1.84,7.18-3.68,15.83-5.89,23.19L113,157.76Z"/><path class="cls-1" d="M217.12,95.39c0,6.81-5,12.14-12.88,12.14-7.55,0-12.51-5.33-12.51-12.14,0-7,5.15-12.33,12.69-12.33C212.15,83.06,216.93,88.39,217.12,95.39ZM193,210v-89.6h22.82V210Z"/></g></svg>