<svg id="Layer_1" data-name="Layer 1" xmlns="http://www.w3.org/2000/svg" viewBox="0 0 300 300"><defs><style>.cls-1{fill:#9d9d9c;}</style></defs><title>icons</title><g id="indd"><path class="cls-1" d="M0,3.45v293.1H300V3.45ZM276.15,273.33H24.47V27.3H276.15Z"/><path class="cls-1" d="M111.39,85.61v124H88.76v-124Z"/><path class="cls-1" d="M209.94,79V184.41c0,9.2.34,19.14.68,25.21H192.09l-.84-14.17h-.34c-4.89,9.94-14.82,16.19-26.78,16.19-19.53,0-35-18.21-35-45.81-.17-30,17-47.84,36.72-47.84,11.29,0,19.37,5.16,23.07,11.78h.34V79Zm-20.71,78.38a34.46,34.46,0,0,0-.51-5.89c-1.85-8.83-8.42-16-17.85-16-13.3,0-20.72,12.88-20.72,29.63,0,16.37,7.42,28.33,20.55,28.33,8.42,0,15.83-6.26,17.85-16a27.15,27.15,0,0,0,.68-6.62Z"/></g></svg>