<svg id="Layer_1" data-name="Layer 1" xmlns="http://www.w3.org/2000/svg" viewBox="0 0 300 300"><defs><style>.cls-1{fill:#9d9d9c;}</style></defs><title>icons</title><path id="postgresql" class="cls-1" d="M221.18.91c6.47,1.16,13,1.93,19.39,3.55,16.08,4.09,29.64,12.48,41.14,24.5,7.83,8.19,11.45,17.73,11.64,28.88.26,15.57-2.55,30.67-6.69,45.58a282.81,282.81,0,0,1-26.44,63.39c-.81,1.44-1.61,2.87-2.41,4.32a10.55,10.55,0,0,0-.38,1.26c4.5-.57,8.73-1.06,12.94-1.67,1.82-.26,3.59-.78,5.39-1.17,6.13-1.31,12.56,1,15.89,6,3.74,5.58,4.16,11.36.54,17.2a37.53,37.53,0,0,1-12.44,12c-12.4,7.71-25.94,11-40.46,10.56-1.26,0-2.52-.06-3.78-.07a6.1,6.1,0,0,0-1,.33c-.34,5.57-.35,11.38-1.12,17.09-1.3,9.67-2.37,19.47-4.79,28.89-5,19.52-17.88,31.43-37.64,35.75-2.54.56-5.06,1.17-7.59,1.76h-9.9c-1.87-.45-3.74-.87-5.6-1.37-12.24-3.29-18.92-11.9-23-23.38-4.35-12.27-5.41-24.95-5.73-37.78-.11-4.33,0-8.67,0-13.23-18.63,6.2-35.54,5.53-51.53-6.44-.07.05-.71.41-1.31.84-10.61,7.57-22.12,7.31-32.5-.79A58.46,58.46,0,0,1,39.58,200.1C31.21,185.89,25.83,170.42,21,154.76,14.79,134.55,9.66,114.05,6.65,93.11,4.05,75,4.87,57,12.28,40,20.87,20.23,36.63,9.62,57.46,6.19c20.19-3.32,39.79,0,59,6.15a7.05,7.05,0,0,0,6-.48c14.06-7.47,29.18-8.69,44.7-7.18,3.28.32,6.53.88,9.8,1.29a6.77,6.77,0,0,0,2,0q12.84-2.29,25.69-4.66a3.64,3.64,0,0,0,.78-.36Zm21.9,177.44c1-1.76,1.52-2.69,2.08-3.58a276.86,276.86,0,0,0,30.51-65.1c5.38-16.88,9.35-34,9-51.91-.18-9.2-3-17.12-9.6-23.88C266.15,24.75,256,17.75,243.88,13.7c-20.78-7-41.63-6-62.43-.17a16.09,16.09,0,0,1-8.18.36,84.77,84.77,0,0,0-12.1-1.62c-13.56-1-26.5,1.12-38.27,8.36a5,5,0,0,1-4.8.45c-19.1-6.6-38.6-10.45-58.86-7.3-20.67,3.21-35,14.4-41.69,34.56-4.25,12.84-5,26.12-3.34,39.41,3,23.43,8.84,46.24,16,68.72C34.5,170.16,39.51,183.6,47,196c3.43,5.69,7.34,11,12.87,14.85,7.16,5,14.6,4.93,21.53-.39a45.88,45.88,0,0,0,6.23-6.08c7.45-8.42,14.81-16.91,21.72-24.84l16.89,4.58c-3.45,5.79-8.06,10-15.07,11.1a45.19,45.19,0,0,0-15.55,5.22c-3.72,2.42-4.23,6.74-1.31,10.11a15.5,15.5,0,0,0,5.78,4.21c15,5.81,29.56,5.46,43-4.43.63-.47,1.3-.89,2.29-1.56,0,1.79,0,3,0,4.3.42,13.77.74,27.54,1.3,41.3.35,8.44,2.33,16.47,7,23.69a27.73,27.73,0,0,0,18,12.72c6.62,1.42,13.11.42,19.59-1.08,16.9-3.9,27.32-14,30-31.39,1.86-12.17,3.47-24.38,5.12-36.58.74-5.42,1.29-10.87,1.87-15.79,5.69.2,11,.71,16.3.5,12.18-.47,23.54-3.77,33.31-11.35a32.39,32.39,0,0,0,6.8-7.08c3.39-4.93.27-10.48-5.7-10.6a27,27,0,0,0-3.46.35c-7.21.83-14.4,2-21.63,2.37C250.48,180.29,247,179,243.08,178.35Zm-19.4-15.61c-3.71-6.47-7-13.16-10.48-19.77-5.92-11.38-11.33-22.94-13.35-35.79-2.48-15.81,5-26.23,20.76-28.31,4.53-.6,9.2-.09,14.13-.09-.43-1.4-.65-2.23-.94-3A84.33,84.33,0,0,0,155,20.38c-20.27-.08-35.62,8.64-45.65,26.39A84.51,84.51,0,0,0,100,73.23c-.83,4.49-1.37,9-2.08,13.77,4.31-1.72,7.91-3.45,11.68-4.59a72.06,72.06,0,0,1,11.9-2.56c11.55-1.42,21.33,4.26,24.29,14.91,4.06,14.61,5.92,29.63,2.65,44.6-1.76,8.06-5.27,15.74-8,23.59-1.58,4.52-3.19,9-4.85,13.68,12.27.71,18.11,7.46,18.18,19.33.11,18.81.53,37.63,1.09,56.44.22,7.3,1.58,14.42,5.63,20.81,4.76,7.52,11.52,10.65,20.23,9.85a53.53,53.53,0,0,0,6-.92c17-3.52,24-10.2,26.59-26.78,2.61-16.76,4.51-33.63,6.63-50.47.47-3.74.61-7.53.79-11.31.4-8.24,3.69-14.4,12-16.82C229.66,172,226.41,167.51,223.68,162.74Zm-123.33,8.83C90.71,161.3,87.2,149.15,88.48,135.2a249.84,249.84,0,0,0,1.17-28.15C89.41,96,89.2,84.94,91.32,74c2.88-14.82,7.56-28.88,17.22-40.83,1.32-1.62,2.73-3.17,4.12-4.78-.29-.26-.41-.45-.58-.5-16.7-5.26-33.67-8.57-51.26-6C43.53,24.46,31.31,33.57,25.58,50.45,21.71,61.87,21,73.71,22.38,85.54c2.25,19.58,7,38.69,12.47,57.6,4.62,15.93,9.71,31.73,18.08,46.16a66.39,66.39,0,0,0,9.48,12.78c5.41,5.61,10.9,5.46,16.14-.26,8.26-9,16.16-18.32,24.42-27.74C102,173.18,101.15,172.41,100.35,171.57Zm138.28-2.31c.28-.37.59-.72.83-1.11a267.93,267.93,0,0,0,32.29-75c2.77-10.83,4.79-21.82,4.6-33-.09-5.79-.33-11.75-4.16-16.63a65.44,65.44,0,0,0-25.47-19.81c-14.93-6.53-30.54-7.56-46.5-5.56-1.35.17-2.69.37-4,.62s-2.44.53-4.09.89c.78.49,1,.66,1.27.78,21.24,10.27,36,26.74,46.3,47.7a42.82,42.82,0,0,1,3.81,27.38,114,114,0,0,0-.43,37.05c1.71,11.81.81,23.43-5.17,34.2-.35.64,0,1.64,0,2.47Zm-111.88,5.83c-9-.33-16.5-4.22-22.33-11.31-6.57-8-8.89-17.26-7.55-27.47a151.38,151.38,0,0,0,.92-34.23c-.35-3.7.81-5.69,4-7.3,7-3.53,14.06-6.51,22-6.66,8.64-.16,13,3.15,14.78,11.58,2.67,12.37,4.55,24.82,2.2,37.46a64.64,64.64,0,0,1-3.27,11.41C134.14,157.32,130.48,166,126.75,175.09Zm-.64-82.68c-2.14.47-3.89.44-5,1.25-.9.63-1.78,2.52-1.47,3.46a8.17,8.17,0,0,0,6.82,5.57,7.64,7.64,0,0,0,7.4-3c1.56-1.89,1.16-3.83-.89-4.85A50.71,50.71,0,0,0,126.11,92.41Zm105.66,67.81c-8.32-17.2-19.13-32.61-23.06-51.13a37.39,37.39,0,0,1-.84-6.9c-.18-8.88,4-13.79,12.76-15a45,45,0,0,1,6.66-.5c2.69,0,5.39.32,8.55.53-.29,3-.33,5.93-.87,8.72-2.46,12.73-1.9,25.41-.18,38.18C236,142.76,235.91,151.47,231.77,160.22ZM223,90.08a54.93,54.93,0,0,0-6.86,2.11c-2.59,1.19-2.7,3-.59,5,2.56,2.4,6.31,2.94,9,.68,1.54-1.28,2.3-3.49,3.41-5.28ZM102.34,206.88a71.83,71.83,0,0,0,7.33,2.24c13.42,2.62,25.24.16,34.05-11.25a8.15,8.15,0,0,0-3.51-12.27c-1.81-.72-3.42-.61-4.75.9a58.58,58.58,0,0,0-4.69,5.53c-4.17,6.1-10,9.54-17.1,11-3.77.78-7.49,1.79-11.23,2.69Zm171.53-20.26c-.9.14-1.8.35-2.71.42-6.56.48-13.14,1.34-19.69,1.24a24.11,24.11,0,0,1-10.8-2.85c-3.31-1.8-5.73-.8-8.32.62-2.37,1.3-4,6.31-3.08,9.46.79,2.63,3.43,2.1,5.4,2.34a56.67,56.67,0,0,0,27.42-3.5c4.3-1.66,8.17-4.46,12.24-6.74Z"/></svg>