<svg id="Layer_1" data-name="Layer 1" xmlns="http://www.w3.org/2000/svg" viewBox="0 0 300 300"><defs><style>.cls-1{fill:#9d9d9c;}</style></defs><title>icons</title><path id="_3dsmax" data-name="3dsmax" class="cls-1" d="M223.1,144.47c16.65-17.74,21.47-38.93,21.47-62.47h0c-.18-1.65-.36-3.3-.55-5h0q-.54-2.74-1.1-5.49h0c-1.16-4.29-2.47-8.43-3.84-12.64h0a82.8,82.8,0,0,0-4.4-9.34h0c-2-3.42-3.74-7-6.45-9.92h0c-11.16-20.82-39.88-34.47-62-38.3-19.86-3.43-39.35,0-58.28,6.21-15.27,5-28.45,18.29-37.65,31.18-5,7-8.41,15.16-11.22,23.19-3.1,8.85-6.86,20.6,1.28,27.7,7.39,6.45,22.49,5.17,31.9,6.06,6,.55,15.06,3.06,20.94,1.83,1.2-2.78,1.43-5.81,2.57-8.59,1.73-4.2,5-7.33,8.62-9.88,6-4.16,14.18-6.34,21.37-6.46,13.24-.2,27.9,6.14,31.7,19.77-9.28,13.33-26.59,20.93-40.87,27.06-4.22,1.81-8.43,3.58-12.75,5.12-4.87,1.73-17.63,3.17-19.47,8.21-2,5.52,0,15.21,0,21.11q0,4.94,0,9.87c5.5,3.93,14.57,5.07,21,6.82,14,3.78,26.63,4.46,41.06,2.89.06.32,1.15.53,1.23.85,11,7.06,13.49,21.85,7.44,33.15-3.82,7.13-14,11.9-21.67,12.57-11.83,1-21.61-.9-30.76-8.39a1.68,1.68,0,0,1-.07.43,3,3,0,0,1,.07-.43,45.65,45.65,0,0,1-5.77-8.35c-1-2.05-1.55-7.38-3.23-8.89-2.35-2.11-8.33,0-11,.42-4.22.62-8.43,1.24-12.65,1.82-7.57,1-17.42.48-24.53,3.22s-9.38,12.35-9.38,19l.51,0a21.14,21.14,0,0,0,1.22,7.64h0c.66,6.31,3.18,15.72,7,20.9h0c3.62,11.71,15.26,23.88,24.6,31.3,12.52,9.95,27.63,17.14,43.59,19.3,1.54,1.79,9.38,1.55,11.65,1.75a79.33,79.33,0,0,0,14.21-.25,105.63,105.63,0,0,0,23.31-4.25c16.33-5.24,31.14-16,41.67-29.29,20.46-25.75,24.7-62.15,8.56-91.09h0c-.92-2.22-2.18-3.6-3.69-6.1s-3.8-5.77-5-7.72c-2.28-3.76-6-7.28-7.11-10.34C218.84,148.65,221.06,146.64,223.1,144.47Zm-19-44.33h0l0,0ZM122.54,129A176.66,176.66,0,0,0,157,113.79c8.19-4.81,22.1-12.43,25.17-22.18,2.16-6.87-1.49-15.44-5-21.23-4.65-7.64-10.34-10.13-18.81-11.45h0a18.21,18.21,0,0,0-5.5-.54h0c-.41-.41-10.35,0-10.35,0a23,23,0,0,0-3.89.49c-.8,0-10.57,3.59-9.39,3.35-3.15.63-11.12,8.67-11.73,9.73a38.22,38.22,0,0,0-5.3,21.88c-5.78.9-12.48-1.25-18.27-1.79-7.21-.67-14.56-1-21.73-2C55.53,87.56,59,74.14,63.32,61.8c8.78-25,28.84-47.46,55.28-53.66,24.22-5.68,52,1,70.83,17.37,21.64,18.79,26.14,50.77,9.7,74.41-9.86,14.18-24.08,24.88-38.51,34.06-7,4.46-14.18,8.9-21.51,12.8-1.76.94-16.37,8.46-18.69,9.54-4,1.84-8.14,3.31-12.23,4.8,0-9.15.14-18.32-.08-27.47C113,132.17,117.82,130.57,122.54,129Zm6.11,91.5-.06-.22A.27.27,0,0,1,128.65,220.51Zm88.41-24c8.13,38.82-29.81,70.28-65.36,72-18,.89-36.67-6.94-45.74-23-8-14.27-10.55-30.59,4.09-41.08,6.55,11,11.67,18.55,25.07,21.55,12.29,2.74,28.67.68,37.83-9,11.51-12.17,12.91-33.81-1.12-44.44l-.11-.57c11.62-2.26,21-7.6,31.79-11.94C211.21,170.91,215.27,183.39,217.06,196.48Z"/></svg>