<svg id="Layer_1" data-name="Layer 1" xmlns="http://www.w3.org/2000/svg" viewBox="0 0 300 300"><defs><style>.cls-1{fill:#9d9d9c;}</style></defs><title>icons</title><path id="sass" class="cls-1" d="M70.34,185.54c9.18-5,18.72-10.19,28.2-15.45a9.69,9.69,0,0,0,2.51-2.48,49.38,49.38,0,0,1,17.31-14.06,24.16,24.16,0,0,1,5.24-1.71c6.65-1.38,11.4,2,12.06,8.84.29,3,.05,6.07.05,9.41.84-.33,1.63-1,2.28-.84,2.15.38,4.62.54,6.23,1.75,1,.74,1.1,3.38.74,5-2.2,9.85-4.73,19.62-7,29.46-.53,2.33-.29,4.83-.41,7.25l.93.27a31.72,31.72,0,0,0,1.87-3.17q13-28.6,25.87-57.26c1.05-2.35,1.21-5.1,2.29-7.44.67-1.47,2.13-3.34,3.5-3.58a48.44,48.44,0,0,1,11.89-.72c3.36.26,4,1.78,2.83,5-2.48,7.08-4,14.27-2.2,21.72.86,3.54,2.32,6.92,3.51,10.37l1,.07c3.72-6.64,7.49-13.25,11.17-19.91s7-13.75,8.43-21.42a5,5,0,0,1,4.82-4.47,60,60,0,0,1,10.36-.44c3.94.33,4.6,1.7,3.31,5.45-2.36,6.88-4.06,13.9-2.11,21.08,1.38,5.06,3.61,9.88,5.24,14.22,7.48-1.85,14.08-4.15,20.87-5,13.81-1.75,27,.31,38,9.76,8.14,7,12.61,15.85,10.24,26.89-1.48,6.89-6.22,11.28-12.62,13.87a11.47,11.47,0,0,1-3.4.3l-.35-1c.93-.8,1.8-1.68,2.79-2.39,9-6.49,10.54-15.52,4-24.59a28.69,28.69,0,0,0-15.27-10.59,60.47,60.47,0,0,0-36.88-.28c-1,.32-2,.77-3,1.2.6,2.34,1.15,4.42,1.65,6.51a18.47,18.47,0,0,1-4.47,17.54,39.13,39.13,0,0,1-20.49,12c-6.07,1.47-10.25-2.42-9.55-8.69a30.16,30.16,0,0,1,5.67-14.39c1.71-2.38,3.62-4.61,5.48-6.88s3.62-4.34,5.4-6.48c-2.41-6.94-5.07-14.58-7.75-22.27-.18.26-.66.86-1.05,1.51-5.11,8.7-10.26,17.38-15.26,26.15a5.86,5.86,0,0,0-.47,3.77c.5,2.55,1.58,5,2.06,7.52,1.74,9.19-1,16.79-8.63,22.33a39.53,39.53,0,0,1-21.83,7.62,13.65,13.65,0,0,1-2.92-.23c-4.75-.85-6.32-4.21-3.73-8.34a72.53,72.53,0,0,1,5.09-6.77c4.75-5.94,9.59-11.81,14.26-17.81a4.22,4.22,0,0,0,.75-3.37c-2.91-7.75-6-15.42-9-23-.15.33-.57,1.26-1,2.18-8.27,17.09-16.43,34.23-24.91,51.21a27.54,27.54,0,0,1-6.6,8c-4.7,4.12-10.43,2.68-12-3.36-1.36-5.36-1.33-11.08-1.34-16.87l-1.41,2.88c-2.92,5.93-5.44,12.11-8.86,17.75-5.06,8.37-14.32,8.18-19.37-.2-5.87-9.73-7.19-20.35-5.34-31.43.73-4.34,1.74-8.65,2.69-13.35l-16.35,9.34c4.43,10.52,4.72,21.13,2.16,31.83-5.29,22.09-26.14,38.2-47.85,37.12C15.26,261.7,7.56,251.8,10,237.36c1.5-8.77,5.94-15.74,12.37-21.63,9.21-8.43,19.7-15,30.7-20.73,1.8-.94,3.57-1.94,5.87-3.19l-8.63-6.5c-10.6-7.95-21.58-15.45-31.65-24-5.51-4.69-9.93-10.9-14-17-5.49-8.17-5.94-17.21-2.49-26.5,4.93-13.3,13.54-24,23.88-33.31,20.74-18.73,45.13-31.12,71.3-40.24,16.75-5.83,34-8.33,51.65-5.66A77.78,77.78,0,0,1,169,44.29c16.23,7.27,23,21,19.3,38.39-4,18.83-15.16,32.88-30.94,43-19.37,12.47-40.9,17.08-63.83,14.47a31.18,31.18,0,0,1-19.79-9.68c-1.93-2.07-3.08-4.89-4.38-7.47-.26-.53.25-1.61.68-2.24.16-.23,1.37-.13,1.71.21,12.92,12.88,28.45,11,44,7.44,18.27-4.15,34.06-12.87,46.36-27.28,5-5.84,8.83-12.34,10.32-20,2-10.43-2-17.82-11.88-21.77-10.3-4.1-21.08-4.48-31.79-3C94.68,61.27,65.55,76.72,39.79,99a52.54,52.54,0,0,0-14,18.65c-5.4,12.3-4.28,23.89,4.84,33.94,4.94,5.44,10.64,10.22,16.27,15C54.45,172.91,62.24,179,70.34,185.54ZM66,198.06c-10.61,6.16-20.45,12.5-28.83,20.82a29.73,29.73,0,0,0-8.84,17c-1,7,2.59,10.71,9.56,9.59C47.08,244,54,238.84,59.56,231.66,67.21,221.74,69.27,210.67,66,198.06Zm37.44,6a50.46,50.46,0,0,0,.84,7.41c.47,1.87,1.71,3.55,2.6,5.31,1.48-1.41,3.57-2.56,4.32-4.29,4-9.12,7.88-18.3,11.35-27.63a153,153,0,0,0,5.13-17.77c.84-3.53-.92-4.92-4.16-3.24a22,22,0,0,0-7.13,5.46C108.39,179.48,103.74,191,103.44,204.09Zm108.28,3.28c9.75-2.52,15-12,11.46-20.62C217,192.36,212.93,198.87,211.72,207.37Zm-42.63,9.73c6.57-.28,14.52-9.49,14.6-16.89Z"/></svg>